<?xml version="1.0" encoding="UTF-8"?> <svg xmlns="http://www.w3.org/2000/svg" width="103" height="439" viewBox="0 0 103 439" fill="none"><path d="M19.7733 434.553C15.2087 433.515 8.9956 428.063 6.45966 425.467C-1.78214 420.274 3.92372 389.121 3.92372 384.578C3.92372 380.034 15.3355 344.987 19.7733 339.794C23.3237 335.641 34.355 331.573 39.4269 330.059V130.157C39.4269 130.157 47 117.177 43.2308 99.0038C39.6017 81.5068 53.7972 26.5286 62.2503 1C62.2503 4.67784 64.0255 17.3556 71.1261 38.6438C80.0019 65.2541 59.7144 112.633 59.0804 114.581C58.5732 116.138 60.9823 121.72 62.2503 124.316C60.771 192.681 59.0804 329.54 64.1523 330.059C70.4921 330.708 82.5378 344.987 92.6816 361.212C102.825 377.438 103.459 420.274 95.8515 430.659C88.2437 441.043 25.4792 435.851 19.7733 434.553Z" stroke="#1E1813" stroke-width="3"></path></svg> 