<?xml version="1.0" encoding="UTF-8"?> <svg xmlns="http://www.w3.org/2000/svg" width="295" height="186" viewBox="0 0 295 186" fill="none"><path d="M292.587 125.991L292.693 132.439C292.8 138.925 291.329 145.347 288.408 151.149C285.928 156.076 282.46 160.44 278.224 163.966L276.728 165.211C273.656 167.768 270.287 169.942 266.695 171.686L256.597 176.586C253.786 177.95 250.854 179.048 247.841 179.865L238.378 182.432C232.183 184.112 225.729 184.581 219.37 183.815L204.76 182.054C201.757 181.692 198.795 181.057 195.91 180.156L151.171 166.191C148.495 165.355 145.895 164.295 143.399 163.02L71.5155 126.315L54.0722 116.128C44.0653 110.283 36.4201 101.113 32.4517 90.1942L32.029 89.0313C29.6066 82.3662 25.6389 76.381 20.452 71.5676C17.1227 68.478 14.2847 64.8953 12.0356 60.9426L6.99903 52.091C5.68431 49.7804 4.67372 47.3076 3.99236 44.7338L2.31177 38.3855C-0.379778 28.2183 4.27805 17.4949 13.5528 12.5059L19.0814 9.1518C26.4619 4.67422 34.8611 2.1802 43.4639 1.91177L46.5144 1.81658C51.3494 1.66572 56.177 2.22027 60.8457 3.46287L84.1705 9.67081C84.8867 9.86142 85.5866 10.1079 86.264 10.4081L93.1992 13.4816C97.3468 15.3197 102.181 13.0841 103.501 8.71703C104.261 6.20409 106.261 4.25777 108.788 3.57244L111.642 2.79841C113.912 2.18298 116.302 2.20212 118.555 2.85378L145.254 10.5778L186.572 24.7147L228.385 44.0877C231.172 45.379 233.832 46.9266 236.333 48.7106L266.57 70.2846C272.433 74.4674 277.315 79.8794 280.882 86.148L282.674 89.2971C284.802 93.036 286.437 97.0374 287.539 101.202L290.926 113.995C291.962 117.909 292.52 121.937 292.587 125.991Z" stroke="#1E1813" stroke-width="3"></path></svg> 