<?xml version="1.0" encoding="UTF-8"?> <svg xmlns="http://www.w3.org/2000/svg" width="167" height="213" viewBox="0 0 167 213" fill="none"><path d="M112.513 209.01L108.023 209.947C104.666 210.647 101.245 211 97.8148 211H75.8704C73.507 211 71.1465 210.832 68.8068 210.499L56.9267 208.803C53.4952 208.314 50.1239 207.468 46.8673 206.281L44.6537 205.474C36.7795 202.604 29.753 197.801 24.2202 191.505L23.2783 190.434C19.4595 186.089 16.4237 181.114 14.3059 175.731L12.6432 171.504C11.5602 168.751 10.7236 165.908 10.1434 163.007L6.68805 145.733L4.52434 124.1L2.03235 15.1477C2.01144 14.2334 2.30928 13.3402 2.87481 12.6215C3.24825 12.1469 3.72582 11.7644 4.2706 11.5038L7.55661 9.93147C8.89652 9.29035 10.3051 8.80385 11.755 8.48135L21.1128 6.4L39.5044 4.2L55.0111 3.1L83.1394 2L110.186 2.36667L131.823 3.46667L157.301 8.17677C158.801 8.45396 160.2 9.12395 161.356 10.1184C163.216 11.7186 164.305 14.0357 164.352 16.4888L165 50.7667L164.279 101.733L161.394 134.367L158.875 157.418C158.393 161.831 157.325 166.16 155.7 170.291L154.76 172.68C152.706 177.901 149.788 182.738 146.129 186.99L141.799 192.022C136.663 197.99 130.191 202.66 122.909 205.653L121.313 206.309C118.469 207.478 115.523 208.383 112.513 209.01Z" stroke="#1E1813" stroke-width="3"></path></svg> 