<?xml version="1.0" encoding="UTF-8"?> <svg xmlns="http://www.w3.org/2000/svg" width="188" height="187" viewBox="0 0 188 187" fill="none"><mask id="path-1-inside-1_296_108" fill="white"><path d="M66.9388 11.1352C81.6591 -3.71178 105.66 -3.71169 120.38 11.1352C126.392 17.1992 134.306 21.0402 142.788 22.0229C163.445 24.4158 178.344 43.043 176.079 63.7143L176.011 64.3374C175.077 72.8617 177.062 81.5243 181.573 88.8178C192.578 106.615 187.323 130.184 169.687 141.444C162.482 146.044 156.975 153.072 154.168 161.146C147.342 180.781 125.734 191.48 106.127 184.575C98.0586 181.733 89.2605 181.733 81.1918 184.575C61.5848 191.48 39.9779 180.781 33.1517 161.146C30.3447 153.072 24.8379 146.044 17.6332 141.444C-0.00335651 130.184 -5.25863 106.615 5.74646 88.8178C10.2566 81.5243 12.242 72.8617 11.308 64.3374L11.2396 63.7143C8.97482 43.043 23.8738 24.4158 44.5306 22.0229C53.0132 21.0403 60.9266 17.1993 66.9388 11.1352Z"></path></mask><path d="M66.9388 11.1352L64.8084 9.023L64.8084 9.02301L66.9388 11.1352ZM120.38 11.1352L122.511 9.02301L122.511 9.02299L120.38 11.1352ZM142.788 22.0229L142.443 25.003L142.443 25.003L142.788 22.0229ZM176.079 63.7143L179.062 64.0415L179.062 64.041L176.079 63.7143ZM176.011 64.3374L173.029 64.0102L173.029 64.0106L176.011 64.3374ZM181.573 88.8178L184.124 87.24L181.573 88.8178ZM169.687 141.444L171.301 143.972L169.687 141.444ZM154.168 161.146L151.335 160.161L151.335 160.161L154.168 161.146ZM106.127 184.575L105.131 187.404H105.131L106.127 184.575ZM81.1918 184.575L82.1883 187.404L82.1883 187.404L81.1918 184.575ZM33.1517 161.146L35.9854 160.161L35.9854 160.161L33.1517 161.146ZM17.6332 141.444L19.2476 138.915L19.2476 138.915L17.6332 141.444ZM5.74646 88.8178L3.1949 87.24L3.1949 87.24L5.74646 88.8178ZM11.308 64.3374L14.2901 64.0106L14.2901 64.0102L11.308 64.3374ZM11.2396 63.7143L8.25747 64.041L8.25752 64.0415L11.2396 63.7143ZM44.5306 22.0229L44.8759 25.003L44.8759 25.003L44.5306 22.0229ZM66.9388 11.1352L69.0692 13.2474C82.6159 -0.415839 104.703 -0.415777 118.25 13.2474L120.38 11.1352L122.511 9.02299C106.617 -7.00761 80.7024 -7.00772 64.8084 9.023L66.9388 11.1352ZM120.38 11.1352L118.25 13.2474C124.742 19.7959 133.286 23.9421 142.443 25.003L142.788 22.0229L143.134 19.0428C135.326 18.1383 128.043 14.6025 122.511 9.02301L120.38 11.1352ZM142.788 22.0229L142.443 25.003C161.467 27.2067 175.182 44.3612 173.097 63.3876L176.079 63.7143L179.062 64.041C181.507 41.7249 165.424 21.625 143.134 19.0428L142.788 22.0229ZM176.079 63.7143L173.097 63.3871L173.029 64.0102L176.011 64.3374L178.993 64.6646L179.062 64.0415L176.079 63.7143ZM176.011 64.3374L173.029 64.0106C172.021 73.2066 174.162 82.5386 179.021 90.3957L181.573 88.8178L184.124 87.24C179.962 80.51 178.133 72.5169 178.993 64.6641L176.011 64.3374ZM181.573 88.8178L179.021 90.3957C189.173 106.812 184.312 128.547 168.072 138.915L169.687 141.444L171.301 143.972C190.335 131.82 195.983 106.417 184.124 87.24L181.573 88.8178ZM169.687 141.444L168.072 138.915C160.292 143.883 154.36 151.458 151.335 160.161L154.168 161.146L157.002 162.131C159.591 154.686 164.672 148.205 171.301 143.972L169.687 141.444ZM154.168 161.146L151.335 160.161C145.041 178.263 125.127 188.085 107.124 181.745L106.127 184.575L105.131 187.404C126.341 194.874 149.643 183.299 157.002 162.131L154.168 161.146ZM106.127 184.575L107.124 181.745C98.4102 178.676 88.9089 178.676 80.1952 181.745L81.1918 184.575L82.1883 187.404C89.6121 184.79 97.707 184.79 105.131 187.404L106.127 184.575ZM81.1918 184.575L80.1953 181.745C62.1918 188.085 42.2786 178.263 35.9854 160.161L33.1517 161.146L30.3181 162.131C37.6771 183.298 60.9777 194.874 82.1883 187.404L81.1918 184.575ZM33.1517 161.146L35.9854 160.161C32.9598 151.458 27.028 143.883 19.2476 138.915L17.6332 141.444L16.0187 143.972C22.6478 148.205 27.7295 154.686 30.3181 162.131L33.1517 161.146ZM17.6332 141.444L19.2476 138.915C3.00793 128.547 -1.85365 106.812 8.29803 90.3956L5.74646 88.8178L3.1949 87.24C-8.66361 106.417 -3.01464 131.82 16.0188 143.972L17.6332 141.444ZM5.74646 88.8178L8.29802 90.3957C13.1567 82.5386 15.2977 73.2066 14.2901 64.0106L11.308 64.3374L8.32583 64.6641C9.18622 72.5169 7.3566 80.51 3.1949 87.24L5.74646 88.8178ZM11.308 64.3374L14.2901 64.0102L14.2217 63.3871L11.2396 63.7143L8.25752 64.0415L8.32588 64.6646L11.308 64.3374ZM11.2396 63.7143L14.2218 63.3876C12.1372 44.3612 25.8525 27.2067 44.8759 25.003L44.5306 22.0229L44.1854 19.0428C21.8951 21.625 5.81245 41.7249 8.25747 64.041L11.2396 63.7143ZM44.5306 22.0229L44.8759 25.003C54.0334 23.9421 62.5767 19.7959 69.0692 13.2474L66.9388 11.1352L64.8084 9.02301C59.2765 14.6026 51.9931 18.1384 44.1854 19.0428L44.5306 22.0229Z" fill="#1E1813" mask="url(#path-1-inside-1_296_108)"></path></svg> 