<?xml version="1.0" encoding="UTF-8"?> <svg xmlns="http://www.w3.org/2000/svg" width="185" height="285" viewBox="0 0 185 285" fill="none"><path d="M132.691 276.858C101.906 287.718 64 283 52.818 276.858C32 255.5 33.6431 232.502 22.8658 210.858C20.8689 206.848 7.54442 172.987 3.72957 147.365C-0.161961 121.229 3.72957 93.0622 3.72957 79.6953C3.72957 66.3284 19.2604 52.9614 27.0258 47.9488C33.1272 45.721 45.9956 40.597 48.658 37.9236C51.986 34.5819 47.826 24.5567 45.33 20.3795C42.834 16.2024 41.1699 21.215 37.0099 17.0378C32.8498 12.8606 32.0178 12.8606 37.0099 6.17717C42.0019 -0.506299 138.515 2.83543 145.171 2.83543C150.496 2.83543 153.491 6.73412 154.323 8.68347C154.323 10.3543 152.16 14.3644 143.507 17.0378C134.854 19.7112 136.574 32.0756 138.515 37.9236C143.507 42.5 155.987 39.7616 169.299 57.1386C185.939 78.8598 179.283 89.7205 182.611 118.961C185.939 148.201 166.803 204.175 166.803 206.681C166.803 209.187 145 272.515 132.691 276.858Z" stroke="#1E1813" stroke-width="3"></path></svg> 