<?xml version="1.0" encoding="UTF-8"?> <svg xmlns="http://www.w3.org/2000/svg" width="265" height="200" viewBox="0 0 265 200" fill="none"><path d="M175.657 167.441L44.8071 197.327M175.657 167.441C179.111 164.093 182 154 182 154M175.657 167.441L182 154M44.8071 197.327C38.3674 198.797 31.2296 194.477 29.7872 187.607M44.8071 197.327C36.1508 199.304 31.36 195.098 29.7872 187.607M29.7872 187.607C29.7872 187.607 -10.3821 43.0058 5.4896 32.1241C27.0462 17.3448 127.14 2.04069 127.14 2.04069M127.14 2.04069C130.173 1.78595 133.226 2.06285 136.163 2.8592M127.14 2.04069L136.163 2.8592M136.163 2.8592C136.928 2.8599 158.063 11.3668 158.063 11.3668C177.708 10.5779 218 12.3 234 21.5C254 33 269.5 60 260.5 101C253.3 133.8 201.999 147.276 182 154M176.802 133.014C176.555 131.102 161.714 66.7929 154.324 34.8774C183.223 25.2273 235.547 20.7216 245.5 68C255.453 115.278 206.502 130.05 176.802 133.014Z" stroke="#1E1813" stroke-width="3"></path></svg> 